<?xml version="1.0" standalone="no"?>
<!DOCTYPE svg PUBLIC "-//W3C//DTD SVG 20010904//EN"
 "http://www.w3.org/TR/2001/REC-SVG-20010904/DTD/svg10.dtd">
<svg version="1.0" xmlns="http://www.w3.org/2000/svg"
 width="800.000000pt" height="800.000000pt" viewBox="0 0 800.000000 800.000000"
 preserveAspectRatio="xMidYMid meet">

<g transform="translate(0.000000,800.000000) scale(0.100000,-0.100000)"
fill="#000000" stroke="none">
<path d="M0 4000 l0 -4000 4000 0 4000 0 0 4000 0 4000 -4000 0 -4000 0 0
-4000z m5347 2638 c18 -15 17 -93 -2 -108 -8 -7 -13 -16 -10 -20 10 -16 -20
-24 -97 -26 -49 -1 -85 -7 -95 -15 -14 -12 -16 -12 -8 0 6 11 5 12 -6 5 -8 -5
-26 -9 -40 -9 -14 0 -34 -7 -44 -15 -15 -12 -17 -12 -10 -1 6 11 5 12 -6 5 -8
-5 -26 -9 -40 -9 -14 0 -32 -5 -40 -11 -8 -6 -31 -10 -52 -9 -21 1 -42 -4 -48
-11 -6 -7 -18 -11 -28 -9 -10 2 -18 -3 -18 -11 0 -10 4 -11 13 -3 9 7 14 6 20
-3 4 -7 3 -10 -1 -5 -5 4 -24 -7 -42 -25 -32 -31 -84 -47 -80 -24 1 5 -11 10
-28 10 -18 0 -29 -5 -27 -12 1 -7 -3 -11 -10 -10 -7 2 -12 -1 -13 -7 0 -5 -4
-15 -8 -21 -7 -12 16 -38 25 -29 2 3 5 -1 5 -8 0 -8 -6 -14 -13 -14 -7 0 -12
3 -11 6 1 3 -2 6 -8 6 -5 0 -9 -4 -7 -8 1 -5 -2 -6 -8 -2 -8 5 -7 11 1 21 6 8
8 14 3 13 -5 0 -19 -13 -31 -28 -16 -20 -18 -28 -8 -28 8 0 11 5 8 10 -3 6 -1
7 5 4 10 -7 11 -24 1 -42 -3 -5 -7 -28 -8 -50 -4 -51 -7 -55 -34 -49 -12 3
-43 7 -69 9 -59 4 -65 8 -70 45 -6 40 6 48 78 51 55 2 60 4 62 25 1 13 -4 26
-10 30 -8 5 -7 9 5 13 15 5 15 9 3 33 -13 24 -12 27 2 30 10 2 33 -5 52 -15
19 -11 32 -16 27 -11 -9 9 63 85 75 78 4 -3 5 1 2 9 -5 15 50 87 67 87 4 0 27
13 51 29 24 15 73 38 109 50 63 21 80 25 144 37 16 3 34 9 40 13 5 5 28 11 50
14 22 3 53 10 68 16 15 6 27 7 27 4 0 -4 5 -2 11 4 13 13 57 7 76 -9z m-1593
-27 c28 -24 35 -53 20 -82 -9 -18 -20 -26 -36 -25 -40 3 -102 18 -115 29 -33
26 4 91 57 99 31 5 50 -1 74 -21z m717 -22 c64 -22 87 -58 64 -103 -7 -13 -10
-28 -7 -32 4 -5 -1 -2 -10 5 -16 12 -18 11 -18 -3 0 -10 -4 -14 -10 -11 -5 3
-10 0 -10 -7 0 -11 -17 -14 -68 -13 -50 1 -69 -3 -69 -12 0 -9 4 -10 13 -2 8
7 14 6 20 -2 4 -7 3 -9 -3 -6 -6 4 -16 1 -22 -7 -13 -15 -47 -14 -44 1 1 5 -4
10 -11 10 -7 0 -13 -6 -13 -13 0 -7 5 -10 11 -7 6 4 5 0 -2 -9 -7 -9 -22 -15
-33 -13 -12 2 -19 -2 -19 -11 0 -8 -6 -13 -12 -11 -7 1 -12 -4 -10 -11 1 -8
-1 -11 -6 -8 -5 3 -21 -1 -35 -9 -15 -8 -31 -15 -35 -17 -4 -2 -6 -5 -5 -8 1
-3 -22 -5 -51 -5 l-53 0 20 27 c18 24 60 46 102 52 8 1 25 12 38 24 13 12 26
20 28 18 3 -3 6 4 6 16 3 29 127 153 167 166 42 13 39 13 77 1z m-671 -173
c-1 -77 -86 -108 -179 -65 -34 15 -42 22 -33 31 9 9 17 9 35 -1 36 -19 60 -20
81 -2 10 9 21 14 25 11 8 -6 32 44 34 70 2 34 37 -8 37 -44z m1074 -4 c3 -5
-1 -9 -9 -9 -8 0 -12 4 -9 9 3 4 7 8 9 8 2 0 6 -4 9 -8z m-1439 -352 c-10 -11
-21 -17 -25 -15 -5 3 -3 -6 3 -19 7 -14 20 -27 29 -30 21 -5 25 -65 6 -85 -11
-11 -10 -12 2 -6 12 7 12 5 -1 -11 -9 -10 -15 -31 -14 -45 1 -15 -4 -26 -11
-26 -12 0 -13 14 -2 33 4 6 1 11 -7 11 -8 0 -13 -3 -10 -6 3 -2 -10 -21 -29
-40 -20 -20 -37 -45 -39 -56 -2 -11 -10 -33 -17 -50 -16 -35 -17 -40 -19 -61
0 -8 -5 -13 -9 -10 -5 3 -8 -9 -8 -27 1 -18 -4 -31 -10 -30 -6 1 -11 -4 -11
-11 0 -7 6 -13 13 -13 7 0 12 5 11 11 -1 6 3 10 9 9 6 -1 10 12 10 30 -1 23 3
31 13 29 12 -3 12 0 2 12 -11 13 -10 15 8 11 11 -2 20 0 18 5 -1 4 3 8 8 8 6
0 9 -3 8 -7 -1 -4 4 -8 11 -8 7 0 13 6 13 14 0 7 -3 11 -5 8 -3 -3 -11 0 -18
6 -9 8 -9 16 2 38 8 16 20 34 28 40 10 9 13 3 11 -29 -2 -39 -1 -40 17 -23 14
12 11 3 -10 -38 -16 -30 -33 -53 -38 -52 -6 1 -11 -7 -11 -18 -2 -27 -22 -50
-37 -42 -8 4 -8 3 0 -6 9 -10 6 -25 -15 -64 -15 -29 -28 -69 -30 -90 -3 -38
-24 -91 -33 -82 -2 3 -5 -2 -5 -10 0 -8 4 -12 9 -9 4 3 8 -2 8 -11 0 -9 -4
-14 -8 -11 -5 3 -9 -1 -9 -9 0 -8 3 -12 7 -10 9 5 6 -77 -3 -92 -4 -6 -3 -14
3 -18 6 -4 7 -12 3 -18 -4 -6 -8 -56 -9 -110 -1 -55 -7 -104 -14 -111 -8 -10
-8 -16 0 -21 6 -3 7 -12 3 -18 -4 -7 -8 -16 -8 -22 -1 -5 -6 -9 -12 -8 -6 1
-10 -5 -8 -15 2 -9 4 -17 5 -17 7 0 6 -36 0 -40 -5 -3 -7 -14 -5 -24 2 -11 -6
-28 -17 -38 -12 -10 -18 -12 -13 -4 6 10 4 12 -6 5 -22 -14 -37 -13 -50 2 -6
8 -16 11 -23 7 -6 -4 -5 1 2 10 12 14 11 16 -8 12 -18 -4 -20 -2 -9 11 10 12
10 15 -2 12 -8 -2 -13 2 -12 9 2 7 -6 10 -17 8 -10 -2 -24 3 -30 11 -7 7 -17
11 -24 7 -6 -4 -5 1 2 10 12 14 11 16 -8 12 -18 -3 -20 -2 -10 10 10 12 8 13
-9 10 -12 -2 -19 0 -17 4 3 5 -3 16 -14 26 -11 10 -17 22 -14 27 3 4 0 7 -8 6
-7 -2 -12 3 -11 9 2 7 0 12 -5 10 -4 -1 -7 3 -7 8 0 5 3 9 6 8 3 -1 6 5 6 13
0 7 -3 12 -5 9 -3 -3 -10 -1 -16 5 -8 6 -12 -1 -12 -25 0 -18 3 -32 7 -30 3 3
18 -8 33 -24 18 -19 22 -28 12 -28 -8 0 -14 5 -13 11 1 6 -4 10 -10 9 -7 -2
-12 3 -10 10 1 6 -7 12 -19 11 -17 -1 -20 5 -19 41 0 23 5 49 11 56 6 8 10 26
9 41 -1 20 2 25 16 23 11 -2 16 2 14 13 -2 9 -4 17 -5 17 -9 0 -4 58 6 66 13
11 15 -6 2 -27 -4 -6 -1 -11 6 -11 14 0 15 34 3 54 -5 8 -1 11 11 8 11 -2 19
3 19 10 0 8 -8 12 -20 10 -15 -4 -17 -2 -7 10 7 8 16 13 20 10 7 -4 6 24 0 33
-2 1 -3 12 -4 25 -3 26 12 49 25 41 5 -3 8 0 7 8 -2 7 3 12 10 10 8 -1 11 2 7
8 -3 6 -10 8 -15 5 -18 -11 -18 13 0 30 11 10 17 21 15 26 -3 4 0 11 6 15 7 4
9 3 5 -4 -3 -6 -2 -13 3 -16 10 -7 9 13 -2 30 -7 12 16 38 25 29 2 -3 5 2 5
10 0 8 -4 12 -8 10 -4 -3 -2 6 4 19 7 13 16 22 21 19 5 -4 6 -2 3 4 -3 5 0 21
8 36 8 15 11 27 8 27 -3 0 -1 6 5 13 6 6 11 17 13 22 9 38 12 44 22 38 5 -3 8
-2 4 3 -6 11 27 87 34 79 3 -3 5 10 5 28 -1 21 3 31 12 29 8 -1 11 2 8 6 -6
10 198 217 214 217 6 0 9 3 8 6 -5 11 34 49 50 49 12 0 12 -3 -3 -20z m561 8
c4 -7 3 -10 -1 -5 -5 4 -20 -18 -35 -48 -15 -30 -29 -53 -31 -51 -2 3 -9 -6
-16 -20 -8 -18 -8 -22 0 -17 7 3 3 -3 -7 -15 -11 -12 -24 -32 -31 -45 -6 -12
-18 -21 -25 -19 -10 2 -11 0 -2 -11 10 -11 9 -17 -1 -26 -15 -11 -17 -48 -4
-68 9 -14 -9 -27 -28 -19 -8 3 -14 0 -12 -7 1 -7 -4 -11 -12 -9 -11 2 -12 0
-3 -11 10 -12 8 -14 -10 -13 -13 0 -22 -4 -21 -10 1 -6 -4 -11 -12 -11 -8 0
-11 5 -8 11 5 8 3 8 -8 0 -22 -17 -68 -9 -85 15 -9 12 -20 19 -25 15 -5 -3 -8
0 -7 7 2 10 -15 13 -69 13 -39 0 -70 4 -67 8 2 4 13 5 24 3 11 -2 22 0 24 4 3
4 -13 7 -34 6 -50 -2 -68 15 -40 40 13 11 25 15 37 10 10 -5 24 -9 31 -11 8
-1 21 -6 30 -10 9 -4 23 -8 31 -10 8 -1 18 -9 22 -16 5 -7 9 -9 9 -4 0 5 7 2
16 -5 18 -15 66 -21 58 -7 -3 4 2 9 10 9 29 3 34 4 42 11 4 4 12 3 19 -2 8 -7
20 0 40 20 16 17 25 30 21 30 -4 0 -4 6 1 13 4 6 9 21 10 31 4 24 23 47 33 41
5 -3 7 3 5 12 -1 10 1 23 6 28 4 6 10 22 12 36 5 25 4 25 -55 24 -32 -1 -61 2
-64 7 -3 5 -2 8 3 7 4 -1 10 0 13 1 3 1 33 3 68 4 58 3 66 6 100 39 42 42 39
41 48 25z m-164 -123 c2 3 5 -2 5 -10 0 -11 -4 -12 -10 -6 -7 7 -15 7 -23 0
-12 -10 -12 -6 -5 30 1 2 7 -2 14 -8 8 -6 16 -9 19 -6z m717 -91 c-7 -8 -1
-11 21 -9 21 2 30 -2 30 -12 0 -12 -3 -13 -14 -4 -10 8 -16 9 -21 1 -4 -6 -1
-9 7 -8 7 2 12 -3 11 -9 -2 -7 3 -12 10 -10 6 1 11 -4 10 -10 -2 -7 0 -12 5
-10 4 1 7 -2 7 -8 0 -5 -3 -9 -6 -8 -3 1 -6 -4 -6 -11 0 -7 6 -13 13 -13 7 0
12 3 11 6 -1 3 3 6 8 6 6 0 10 -12 9 -27 0 -15 2 -26 5 -25 3 1 6 -2 6 -8 0
-5 -3 -9 -6 -8 -3 1 -6 -4 -6 -11 0 -7 6 -13 13 -13 7 0 12 3 11 6 -1 3 3 6 8
6 6 0 9 -3 8 -6 -1 -3 4 -6 12 -6 8 0 13 3 12 6 -1 3 3 6 8 6 6 0 9 -3 8 -7
-2 -5 1 -7 6 -5 5 1 9 -2 9 -8 0 -5 -3 -9 -7 -8 -4 1 -8 -4 -8 -11 0 -7 6 -13
13 -13 7 0 12 4 11 8 -1 4 3 7 8 7 6 0 9 -4 7 -10 -1 -5 2 -7 8 -3 5 3 10 -2
11 -12 0 -11 3 -13 6 -5 3 7 -2 21 -12 32 -11 12 -13 20 -6 25 6 3 11 -1 11
-9 0 -9 5 -16 10 -16 6 0 10 -8 10 -18 0 -22 -39 -59 -60 -57 -8 1 -22 -4 -30
-11 -8 -6 -23 -10 -32 -9 -11 2 -18 -3 -18 -11 0 -9 5 -12 13 -8 6 4 0 -6 -16
-23 -15 -16 -25 -32 -22 -35 3 -2 -1 -5 -8 -5 -8 0 -14 6 -14 13 0 7 3 12 6
11 3 -1 6 3 6 8 0 6 -4 9 -8 7 -5 -1 -6 2 -2 8 5 8 11 8 20 0 8 -7 15 -7 19
-1 8 12 -3 18 -34 16 -14 0 -24 -6 -23 -11 1 -6 -4 -11 -12 -11 -8 0 -13 5
-12 11 1 6 -4 10 -11 8 -8 -1 -11 2 -7 8 5 8 11 8 19 1 9 -8 13 -7 13 3 0 9
-10 12 -29 11 -22 -2 -26 0 -18 10 9 10 7 13 -7 10 -10 -1 -17 -9 -15 -16 2
-8 -11 0 -28 16 -17 17 -30 23 -28 15 2 -9 -5 -14 -17 -14 -11 0 -19 5 -18 11
1 6 -10 9 -27 8 -16 -1 -29 0 -28 4 2 20 -4 22 -20 8 -18 -16 -19 -15 -18 15
1 21 -4 32 -12 31 -17 -4 -15 0 11 26 l24 22 -2 -41 c-1 -30 1 -37 10 -30 6 5
16 6 21 2 5 -4 0 3 -10 16 -18 20 -15 27 9 22 6 -1 0 9 -13 22 -12 14 -19 28
-15 32 5 4 8 13 8 19 1 7 6 11 13 10 7 -2 11 0 11 5 -5 27 3 41 21 37 11 -2
19 1 17 8 -1 7 4 11 11 10 6 -2 11 3 10 10 -2 6 3 11 10 10 6 -2 11 1 10 6 -2
5 2 9 7 9 6 0 9 -3 8 -7 -1 -4 4 -8 11 -8 14 0 16 14 4 32 -4 7 6 11 27 11 25
0 31 -3 24 -12z m82 -49 c5 4 9 -1 9 -10 0 -9 5 -13 10 -10 6 3 10 -1 10 -10
0 -9 5 -13 10 -10 6 4 7 12 3 18 -9 17 38 -23 61 -52 11 -14 22 -36 24 -50 l3
-26 -24 23 c-17 16 -27 20 -32 12 -10 -17 -54 27 -50 50 2 10 -9 30 -25 45
-16 16 -26 33 -22 39 4 7 8 4 10 -7 2 -9 8 -15 13 -12z m580 -37 c35 -18 66
-32 69 -33 3 0 23 -11 45 -25 22 -13 54 -31 72 -40 18 -9 43 -26 56 -39 14
-12 43 -32 65 -44 22 -12 63 -43 92 -69 28 -27 55 -48 59 -48 12 0 101 -93
101 -106 0 -6 16 -26 35 -45 19 -19 35 -40 35 -47 0 -7 5 -10 10 -7 6 3 10 0
10 -8 0 -14 50 -63 50 -49 0 4 6 -4 13 -18 8 -14 19 -24 26 -22 7 1 10 -1 7
-6 -7 -11 109 -124 118 -115 5 6 10 -21 7 -40 -1 -5 3 -6 7 -3 12 7 44 -28 35
-38 -5 -4 -2 -6 6 -4 8 2 20 -7 26 -19 7 -13 19 -31 28 -41 10 -10 17 -24 17
-31 0 -7 5 -9 10 -6 6 3 10 -1 10 -10 0 -9 4 -14 8 -11 5 3 15 -11 22 -30 8
-19 22 -42 32 -51 10 -9 18 -21 18 -26 0 -6 8 -20 18 -31 16 -20 16 -20 -3 -6
-11 7 3 -11 31 -41 71 -76 115 -176 77 -176 -9 0 -10 4 -2 13 7 9 6 12 -8 9
-10 -1 -17 -8 -15 -16 3 -10 0 -10 -12 0 -9 7 -13 18 -9 25 15 24 9 32 -22 32
-19 0 -32 -4 -29 -8 2 -4 13 -5 24 -3 11 2 22 0 24 -4 3 -4 -26 -7 -64 -6 -38
1 -66 -3 -64 -7 3 -5 9 -6 14 -3 5 3 11 1 14 -3 9 -14 -40 -8 -58 8 -15 11
-17 11 -14 -1 2 -8 -3 -13 -10 -11 -6 1 -11 -4 -10 -10 2 -7 -3 -12 -10 -10
-8 1 -11 -2 -7 -8 5 -8 13 -6 25 5 12 11 20 13 25 5 4 -6 1 -9 -7 -8 -7 2 -12
-3 -10 -10 1 -8 -2 -11 -7 -8 -5 3 -14 -1 -21 -8 -6 -8 -20 -13 -30 -11 -11 2
-22 -1 -26 -6 -3 -6 -10 -6 -17 -1 -7 5 -24 8 -39 7 -15 -1 -26 3 -25 9 1 6
-3 10 -9 9 -6 -1 -10 11 -10 27 1 17 -3 29 -9 27 -5 -1 -9 -5 -8 -8 1 -3 -4
-6 -11 -6 -7 0 -13 6 -13 13 0 7 3 12 6 11 3 -1 6 3 6 8 0 6 -2 9 -6 8 -3 -1
-4 19 -3 45 1 26 3 47 4 47 1 0 3 21 4 47 1 28 -2 46 -8 45 -6 -1 -10 3 -9 9
1 6 -5 11 -12 11 -10 0 -12 -4 -5 -12 5 -7 6 -16 2 -20 -4 -5 -2 -5 4 -2 8 4
11 -3 9 -23 -1 -16 1 -28 5 -25 3 2 7 -2 7 -9 0 -7 -6 -13 -13 -13 -7 0 -12 5
-11 11 1 6 -5 10 -13 8 -11 -3 -10 2 4 17 17 19 15 25 -5 23 -3 -1 -5 11 -3
26 1 15 3 27 4 27 1 0 3 21 4 47 1 28 -2 46 -8 45 -6 -1 -10 3 -9 9 1 6 -5 11
-12 11 -10 0 -12 -4 -5 -12 5 -7 6 -16 2 -20 -4 -5 -2 -5 5 -1 8 4 11 0 8 -14
-2 -11 -1 -18 4 -16 4 3 7 -6 7 -18 0 -12 -5 -23 -11 -23 -6 0 -11 14 -11 31
1 17 -4 30 -10 29 -12 -2 -13 35 -1 54 5 8 1 11 -14 8 -17 -3 -19 -2 -9 10 10
12 8 14 -7 11 -14 -3 -19 2 -19 19 0 13 3 22 6 20 4 -2 7 2 7 10 0 8 -8 12
-20 10 -15 -4 -17 -2 -7 10 7 8 16 12 21 9 15 -9 10 3 -7 16 -12 11 -15 11
-12 1 2 -8 -4 -15 -12 -16 -11 -2 -16 5 -16 21 0 12 3 21 6 19 4 -2 7 2 7 10
0 8 -8 12 -20 10 -15 -3 -17 -2 -7 10 10 12 8 13 -10 10 -17 -3 -19 -1 -11 9
9 11 6 13 -18 11 -18 -1 -29 2 -28 9 1 6 -3 10 -10 9 -12 -3 -12 14 0 34 5 8
1 11 -14 8 -18 -4 -19 -2 -8 11 10 12 10 15 -2 12 -8 -2 -13 3 -11 12 2 8 0
12 -4 7 -4 -4 -15 0 -25 9 -13 12 -19 12 -25 3 -5 -8 -3 -10 6 -4 9 6 11 4 5
-4 -5 -9 -15 -5 -36 15 -16 15 -29 24 -29 19 0 -5 -18 8 -40 30 -21 21 -37 42
-34 46 2 4 -5 6 -17 4 -17 -3 -19 -2 -9 10 10 12 8 13 -8 10 -12 -2 -29 6 -41
19 -22 24 -78 29 -73 8 1 -7 -2 -11 -7 -10 -5 2 -9 -1 -9 -7 0 -5 4 -9 10 -7
5 1 7 -2 3 -8 -5 -8 -11 -8 -19 -1 -7 6 -16 7 -20 3 -4 -4 -6 0 -4 8 2 9 -3
14 -11 12 -12 -3 -12 0 -1 13 10 12 16 13 28 3 13 -11 14 -11 7 1 -6 10 -4 12
5 6 8 -5 11 -4 7 2 -10 17 61 8 81 -10 15 -14 19 -14 19 -3 0 8 -5 14 -11 13
-6 -1 -10 3 -9 9 1 6 -8 11 -20 10 -12 0 -21 4 -20 10 1 6 -4 11 -12 11 -8 0
-13 -5 -12 -11 1 -5 -11 -10 -28 -10 -16 0 -29 5 -28 10 1 6 -4 11 -12 11 -8
0 -13 -5 -12 -10 3 -15 -31 -16 -43 -2 -6 8 -20 12 -32 10 -15 -3 -17 -1 -9 9
9 11 6 13 -19 11 -16 -1 -34 3 -40 10 -12 15 5 16 27 2 6 -4 15 -3 18 3 4 6 1
9 -7 8 -7 -2 -12 2 -11 9 2 7 -6 10 -18 8 -17 -4 -19 -2 -9 10 7 8 17 12 23 8
6 -3 7 -1 3 6 -4 6 -13 8 -19 4 -20 -12 -37 -12 -34 0 1 7 -4 11 -10 10 -7 -2
-12 3 -10 10 1 6 -5 11 -13 9 -12 -3 -13 -1 -2 9 10 11 15 9 27 -8 9 -13 23
-20 35 -18 10 2 23 -2 29 -9 6 -7 31 -12 58 -11 26 1 53 -2 60 -7 6 -5 14 -5
16 -1 7 12 62 8 60 -4 -1 -5 4 -10 12 -10 8 0 12 4 9 8 -2 4 0 10 6 14 5 3 10
0 10 -8 0 -7 7 -14 15 -14 11 0 12 3 3 14 -9 11 -8 13 3 11 8 -2 13 2 12 8 -1
6 4 11 11 11 7 0 13 -6 13 -13 0 -7 -4 -11 -9 -8 -4 3 -8 -2 -8 -10 0 -9 6
-15 13 -13 6 1 11 -3 10 -9 -1 -6 4 -11 12 -11 8 0 13 5 12 11 -1 6 3 10 9 9
6 -1 11 4 11 12 0 8 -5 13 -11 12 -6 -1 -10 4 -8 11 1 6 -4 11 -10 10 -7 -2
-12 3 -10 10 1 6 -4 11 -10 10 -7 -2 -12 2 -11 9 2 7 -6 10 -17 8 -11 -2 -19
1 -17 8 1 7 -4 11 -10 10 -7 -2 -13 4 -13 13 0 9 -5 12 -12 8 -6 -4 -8 -3 -4
4 3 6 2 13 -4 17 -6 4 -8 10 -5 15 3 5 -4 7 -16 5 -17 -3 -19 -2 -9 10 10 12
8 13 -10 10 -18 -3 -20 -2 -10 10 10 12 8 13 -10 10 -18 -3 -20 -2 -10 10 10
12 8 13 -9 10 -11 -2 -20 1 -18 7 1 6 -9 12 -23 14 -13 3 -33 13 -45 23 -11
10 -28 17 -38 16 -9 -2 -15 0 -12 5 3 4 -3 10 -13 12 -21 6 -26 38 -6 38 6 0
41 -14 75 -32z m275 -295 c-10 -11 -19 -7 -22 10 -2 15 0 16 12 6 8 -6 12 -14
10 -16z m-849 -40 c0 -6 -4 -10 -9 -7 -12 8 -10 -20 3 -33 5 -5 10 -29 11 -51
0 -23 4 -39 9 -36 5 3 9 -2 9 -11 0 -9 -4 -14 -8 -11 -5 3 -9 -1 -9 -9 0 -8 5
-13 11 -12 6 1 10 -4 8 -11 -1 -8 2 -11 8 -7 5 3 10 -1 10 -10 0 -9 5 -13 10
-10 6 3 10 -4 10 -17 0 -29 -41 -36 -61 -11 -10 12 -10 15 -1 9 8 -5 12 1 11
21 0 25 -1 26 -9 8 -7 -15 -9 -9 -8 25 1 33 -2 44 -12 42 -11 -3 -11 0 1 14 9
12 9 15 2 10 -8 -4 -13 -2 -13 8 0 9 -7 13 -18 11 -14 -2 -18 2 -18 18 1 12 5
27 9 34 4 6 3 15 -3 18 -17 10 5 31 33 31 13 0 24 -6 24 -13z m-222 -43 c4 -6
10 -8 14 -6 4 3 8 0 8 -7 0 -7 -15 -13 -33 -14 -31 -2 -32 0 -21 18 13 21 23
24 32 9z m381 -15 c1 -8 -4 -15 -12 -15 -14 0 -19 21 -7 33 8 9 16 1 19 -18z
m502 -1 c-1 -5 -9 -9 -16 -10 -10 -2 -11 1 -1 12 12 14 24 13 17 -2z m-798
-10 c28 2 53 -75 30 -89 -8 -5 -7 -12 2 -23 10 -12 10 -14 1 -8 -8 4 -13 1
-13 -9 0 -9 -4 -14 -8 -11 -5 3 -9 -1 -9 -9 0 -8 3 -12 7 -10 4 2 7 -2 7 -10
0 -8 -4 -12 -9 -9 -4 3 -8 -2 -8 -11 0 -9 -4 -13 -10 -10 -5 3 -10 -1 -10 -10
0 -9 5 -13 10 -10 6 3 10 -1 10 -10 0 -9 -4 -14 -8 -11 -5 3 -9 -1 -9 -9 0 -8
5 -13 11 -12 6 1 10 -5 8 -13 -2 -8 0 -12 4 -8 4 4 14 3 21 -4 8 -6 36 -13 61
-15 66 -4 78 -7 98 -23 17 -14 18 -13 6 2 -14 18 -6 27 21 23 14 -3 16 0 7 10
-8 9 -8 15 0 20 5 3 10 18 11 33 0 24 1 25 9 7 7 -18 8 -16 12 10 5 27 5 26 7
-8 0 -23 5 -36 11 -32 6 3 10 -1 10 -10 0 -9 5 -13 10 -10 6 3 10 -1 10 -10 0
-9 -4 -13 -10 -10 -5 3 -10 -1 -10 -10 0 -9 -4 -14 -8 -11 -5 3 -9 -1 -9 -9 0
-8 3 -12 7 -10 4 2 7 -2 7 -10 0 -8 -4 -12 -9 -9 -4 3 -8 -1 -8 -8 0 -7 -7 -3
-15 9 -10 14 -23 20 -45 18 -17 -1 -33 2 -36 7 -3 5 -11 4 -19 -2 -10 -8 -15
-8 -20 0 -5 8 -11 8 -21 -1 -8 -6 -14 -8 -14 -4 0 5 -8 1 -17 -7 -10 -8 -35
-14 -55 -13 -20 1 -35 -2 -32 -7 3 -5 9 -6 14 -3 5 3 11 2 13 -3 3 -4 -18 -7
-47 -7 -48 0 -53 1 -51 22 0 12 4 25 8 29 4 4 7 18 7 31 0 16 4 22 13 17 10
-6 10 -4 0 7 -7 7 -13 20 -12 29 0 10 3 9 9 -5 8 -18 9 -17 9 8 1 16 5 26 9
23 5 -3 9 1 9 8 0 7 -6 13 -14 13 -7 0 -13 -6 -13 -12 0 -6 -7 -12 -15 -12
-10 0 -12 4 -5 12 7 8 5 12 -5 12 -8 0 -15 -7 -15 -14 0 -8 -5 -11 -10 -8 -6
4 -8 11 -4 16 7 13 -19 7 -28 -6 -4 -5 -8 1 -8 15 0 20 -2 22 -10 10 -7 -11
-10 -11 -10 -2 0 7 -4 10 -10 7 -5 -3 -10 1 -10 10 0 9 -4 13 -10 10 -5 -3
-10 1 -10 9 0 9 -6 15 -12 14 -7 -2 -12 3 -10 10 2 14 -19 12 -30 -3 -4 -5 -8
1 -8 15 0 17 -3 21 -9 12 -5 -9 -8 -2 -8 20 -1 27 1 29 7 13 7 -17 9 -16 10
10 1 26 3 27 10 10 5 -11 9 -15 10 -10 1 6 5 1 10 -10 6 -14 9 -16 9 -4 1 12
13 15 60 14 37 -1 59 3 58 9 -1 6 12 11 30 10 18 0 31 4 30 10 -1 6 4 10 12 8
11 -2 12 0 3 11 -14 16 -4 31 12 19 6 -5 18 -8 26 -8z m183 -11 c-1 -5 4 -10
12 -10 8 0 12 4 9 8 -2 4 0 11 6 14 6 4 9 1 8 -7 -2 -8 6 -13 20 -12 19 1 20
-1 10 -14 -10 -12 -10 -14 0 -8 8 4 12 1 12 -10 0 -14 2 -14 16 -3 12 10 17
10 23 0 10 -16 22 -16 32 1 7 10 9 10 9 0 0 -7 5 -10 10 -7 6 4 10 -8 10 -30
0 -22 -4 -34 -10 -30 -5 3 -10 -1 -10 -10 0 -9 -4 -13 -10 -10 -5 3 -10 -2
-11 -12 0 -11 -3 -13 -6 -5 -3 7 0 19 6 26 8 9 7 13 -4 13 -8 0 -15 -7 -15
-14 0 -8 -5 -11 -10 -8 -6 4 -8 10 -6 14 3 4 -1 8 -9 8 -8 0 -13 -5 -12 -11 1
-6 -4 -10 -10 -8 -7 1 -13 -6 -14 -15 0 -12 -2 -13 -6 -5 -3 7 0 19 6 26 8 9
7 13 -4 13 -8 0 -15 -7 -15 -16 0 -30 -29 12 -32 46 -1 17 -5 30 -9 27 -10 -6
-23 16 -25 42 0 15 4 21 15 19 9 -1 15 -7 14 -12z m-486 -45 c-3 -8 -6 -5 -6
6 -1 11 2 17 5 13 3 -3 4 -12 1 -19z m0 -40 c-3 -8 -6 -5 -6 6 -1 11 2 17 5
13 3 -3 4 -12 1 -19z m483 6 c0 -8 -5 -12 -10 -9 -6 4 -8 11 -5 16 9 14 15 11
15 -7z m197 -6 c-3 -8 -6 -5 -6 6 -1 11 2 17 5 13 3 -3 4 -12 1 -19z m-100
-60 c-3 -8 -6 -5 -6 6 -1 11 2 17 5 13 3 -3 4 -12 1 -19z m-20 -20 c-3 -8 -6
-5 -6 6 -1 11 2 17 5 13 3 -3 4 -12 1 -19z m40 0 c-3 -8 -6 -5 -6 6 -1 11 2
17 5 13 3 -3 4 -12 1 -19z m40 0 c-3 -8 -6 -5 -6 6 -1 11 2 17 5 13 3 -3 4
-12 1 -19z m-60 -20 c-3 -8 -6 -5 -6 6 -1 11 2 17 5 13 3 -3 4 -12 1 -19z
m899 -14 c2 -12 0 -14 -9 -5 -6 6 -12 18 -13 27 -2 12 0 14 9 5 6 -6 12 -18
13 -27z m-879 -6 c-3 -8 -6 -5 -6 6 -1 11 2 17 5 13 3 -3 4 -12 1 -19z m-20
-20 c-3 -8 -6 -5 -6 6 -1 11 2 17 5 13 3 -3 4 -12 1 -19z m-323 -156 c3 -5 -1
-9 -9 -9 -8 0 -12 4 -9 9 3 4 7 8 9 8 2 0 6 -4 9 -8z m226 -137 c0 -6 -15 -10
-32 -10 -50 3 -58 4 -58 13 0 4 20 8 45 8 25 0 45 -5 45 -11z m-1440 -96 c-3
-3 7 -18 22 -34 15 -16 25 -32 22 -37 -3 -5 0 -7 7 -6 7 2 17 -7 24 -19 6 -12
26 -36 44 -55 52 -53 97 -165 66 -165 -6 0 -11 14 -11 31 1 20 -4 30 -12 29
-6 -2 -11 3 -9 10 1 6 -4 11 -11 9 -9 -2 -11 2 -6 10 12 19 14 39 3 32 -5 -3
-7 -9 -5 -13 3 -4 -1 -8 -9 -8 -8 0 -13 5 -12 11 1 6 -4 10 -10 9 -7 -2 -12 3
-10 10 1 6 -4 11 -10 10 -7 -2 -12 3 -10 10 1 6 -4 11 -12 9 -12 -3 -12 0 -2
12 10 12 9 14 -6 11 -23 -3 -45 14 -36 29 12 19 10 53 -3 53 -12 0 -13 -14 -2
-33 4 -6 1 -11 -7 -11 -8 0 -13 3 -10 5 3 3 0 11 -6 19 -6 7 -8 13 -4 13 4 0
2 6 -4 14 -9 10 -9 16 -1 21 8 5 8 10 0 20 -9 10 -7 13 7 11 10 -2 16 -5 13
-7z m1477 -26 c0 -6 -5 -11 -11 -10 -6 1 -10 -3 -9 -8 1 -6 -28 -10 -72 -10
-44 0 -73 4 -72 10 1 5 -3 9 -9 8 -6 -1 -11 4 -11 10 0 9 27 12 92 12 65 0 92
-3 92 -12z m1060 -299 c0 -7 -5 -12 -11 -11 -6 1 -10 -3 -9 -8 1 -6 -14 -11
-32 -11 l-34 0 19 21 c21 23 67 29 67 9z m-2217 -81 c0 -19 4 -32 8 -29 5 3 9
-1 9 -8 0 -7 -6 -13 -13 -13 -7 0 -11 3 -9 7 2 3 -2 19 -10 34 -10 18 -10 24
-2 20 7 -4 4 2 -6 13 -19 22 -12 39 10 22 7 -6 13 -27 13 -46z m790 -8 c0 4 8
1 18 -8 10 -10 23 -14 27 -10 5 5 3 -1 -5 -11 -8 -11 -10 -17 -4 -13 7 4 17 0
24 -8 7 -8 16 -13 19 -10 4 2 8 -2 8 -10 0 -13 -4 -12 -19 2 -10 9 -18 12 -18
8 0 -4 -8 -1 -18 8 -10 10 -22 14 -26 10 -4 -5 -6 -1 -4 7 2 8 -2 14 -9 15
-16 0 -36 21 -39 41 -2 12 3 11 22 -7 13 -12 24 -19 24 -14z m290 -92 c0 -8 4
-12 8 -9 5 3 9 -1 9 -9 0 -19 0 -19 -25 8 -17 18 -19 24 -7 24 8 0 15 -7 15
-14z m-6 -22 c9 -7 14 -17 11 -20 -2 -4 2 -8 10 -8 8 0 12 4 9 8 -2 4 0 10 6
14 5 3 10 -1 10 -9 0 -9 7 -13 18 -11 15 3 18 -4 19 -38 1 -23 -4 -48 -11 -56
-8 -12 -8 -13 2 -7 7 4 12 1 12 -9 0 -9 -4 -14 -8 -11 -5 3 -9 -1 -9 -9 0 -8
4 -12 9 -9 4 3 8 -2 8 -11 0 -9 -4 -14 -8 -11 -4 2 -8 -19 -8 -47 0 -33 -4
-51 -11 -50 -8 2 -8 -4 0 -22 7 -13 15 -21 18 -19 4 2 2 -7 -4 -20 -7 -13 -14
-23 -18 -21 -3 2 -5 -10 -5 -28 1 -18 -4 -31 -10 -30 -6 1 -11 -4 -11 -12 0
-8 4 -12 9 -9 4 3 8 -2 8 -11 0 -10 5 -13 12 -9 6 4 8 3 5 -2 -9 -16 -55 -9
-77 11 -11 10 -20 15 -20 11 0 -3 -12 0 -27 7 -16 7 -35 13 -43 12 -8 -1 -19
2 -25 6 -5 4 -23 9 -40 11 -16 1 -38 9 -47 17 -9 8 -24 16 -32 17 -8 1 -33 5
-56 8 -23 3 -46 9 -52 12 -6 4 -35 8 -65 9 -42 2 -52 0 -44 -8 7 -7 16 -12 21
-12 6 0 10 -3 10 -7 0 -5 0 -20 0 -34 0 -14 -4 -23 -10 -19 -6 4 -8 11 -4 16
3 5 0 8 -8 7 -7 -2 -12 4 -10 12 2 8 0 12 -4 8 -4 -4 -13 -3 -20 3 -9 7 -14 6
-20 -3 -4 -7 -3 -10 1 -5 12 10 46 -23 38 -37 -3 -6 -3 -8 2 -4 13 12 35 -12
35 -39 0 -24 0 -24 -24 -6 -28 21 -57 61 -34 47 10 -6 10 -4 -1 9 -7 9 -16 15
-20 13 -12 -8 -11 37 2 54 6 8 7 12 2 7 -4 -4 -17 1 -27 10 -15 13 -19 14 -16
3 2 -11 -9 -14 -44 -15 -27 0 -47 4 -45 10 1 6 5 9 10 7 4 -1 6 4 5 10 -2 7 3
12 10 10 6 -1 11 4 10 10 -2 7 3 12 11 10 12 -3 12 0 2 12 -11 13 -9 15 9 11
18 -4 20 -2 9 11 -10 12 -10 15 2 12 8 -2 13 2 12 8 -1 6 10 10 25 9 15 -1 35
5 45 14 10 8 18 11 17 6 -5 -24 1 -27 21 -9 11 10 19 14 17 9 -2 -6 2 -10 7
-10 6 0 9 3 8 6 -1 4 11 5 28 4 16 -1 31 1 34 5 4 6 56 6 63 0 7 -7 49 -5 59
2 6 5 14 5 18 -2 3 -6 11 -7 17 -4 6 4 8 2 5 -3 -4 -6 -20 -9 -37 -8 -17 1
-32 -1 -35 -5 -2 -4 5 -7 18 -6 12 0 21 -4 20 -10 -1 -6 8 -11 20 -10 12 0 21
-4 20 -10 -1 -6 4 -11 11 -11 17 0 15 19 -3 41 -7 9 -10 16 -6 16 4 0 1 8 -6
17 -8 9 -9 14 -3 10 7 -4 17 0 24 8 7 8 16 12 21 9 5 -3 8 0 7 8 -2 7 3 12 10
11 6 -2 11 0 11 5 -5 27 3 41 21 37 11 -2 19 0 17 5 -1 4 3 7 8 7 6 -1 9 -5 8
-8 -1 -3 4 -6 11 -6 7 0 13 6 13 13 0 7 -4 12 -8 11 -4 -1 -6 3 -5 8 0 6 4 9
7 8 3 -1 6 4 6 12 0 8 -3 13 -6 12 -3 -1 -6 3 -6 8 0 6 4 9 9 7 5 -2 4 4 -3
12 -10 12 -9 14 6 11 10 -1 17 -7 16 -12 -1 -5 4 -10 11 -10 7 0 13 6 13 13 0
7 -4 11 -8 9 -3 -3 -12 2 -18 9 -16 19 10 16 33 -3z m-77 -21 c-3 -11 -1 -23
5 -26 5 -3 2 -14 -8 -25 -18 -19 -40 -16 -27 4 4 7 8 19 8 27 0 17 13 40 22
40 3 0 3 -9 0 -20z m-165 -38 c8 -6 19 -8 23 -4 5 4 5 1 1 -6 -8 -13 -46 -32
-78 -38 -10 -2 -22 -5 -29 -6 -6 -2 -13 5 -14 14 -2 12 3 15 17 13 16 -3 18
-2 8 10 -10 12 -8 13 9 10 11 -2 20 -1 20 3 -4 23 18 25 43 4z m398 -77 c-5
-6 -11 -20 -13 -31 -2 -10 -10 -32 -17 -49 -7 -16 -15 -39 -17 -49 -5 -26 -23
-47 -35 -40 -5 3 -4 12 3 20 6 8 8 14 4 14 -4 0 -1 8 6 17 8 9 9 14 3 10 -6
-3 -11 0 -11 8 0 8 3 13 6 12 3 -1 8 3 9 8 2 6 9 16 15 24 10 12 9 13 -3 6
-11 -6 -10 -3 3 12 9 11 14 23 10 28 -5 4 -2 5 5 1 7 -4 12 -2 12 7 0 7 7 14
15 14 10 0 12 -4 5 -12z m530 11 c0 -2 -8 -10 -17 -17 -16 -13 -17 -12 -4 4
13 16 21 21 21 13z m-21 -62 c-11 -13 -5 -19 15 -15 5 1 4 -4 -3 -13 -9 -10
-9 -16 -1 -21 8 -5 9 -10 1 -18 -7 -7 -7 -15 -1 -22 7 -9 6 -16 -3 -24 -11 -8
-18 -6 -32 9 -10 11 -15 20 -11 20 4 0 4 6 -1 13 -19 30 -8 68 22 79 6 1 9 7
7 11 -1 5 2 6 8 2 8 -5 7 -11 -1 -21z m-846 -54 c10 -12 9 -12 -4 -2 -9 6 -18
9 -21 6 -3 -3 -9 -1 -12 4 -9 15 22 8 37 -8z m531 -42 c-3 -4 0 -7 8 -6 7 2
12 -4 10 -12 -2 -8 0 -12 4 -8 4 4 14 2 22 -5 8 -6 25 -12 36 -12 12 -1 20 -6
19 -12 -1 -6 11 -9 28 -8 23 2 27 0 19 -10 -8 -10 -4 -12 18 -10 18 1 29 -3
29 -10 0 -7 -8 -12 -18 -10 -10 2 -18 -1 -16 -7 1 -6 -19 -12 -50 -13 -35 -1
-60 -8 -73 -20 -12 -11 -35 -20 -52 -21 -17 -2 -36 -8 -42 -15 -8 -9 -8 -10 0
-6 7 4 18 -1 25 -11 7 -9 9 -14 5 -10 -5 4 -15 3 -23 -4 -19 -15 -47 20 -31
40 8 9 7 11 -6 6 -9 -3 -16 -10 -16 -16 0 -5 -4 -6 -10 -3 -5 3 -10 0 -10 -8
0 -16 24 -40 32 -32 3 3 13 -4 23 -15 19 -21 19 -20 57 17 21 20 38 42 38 48
0 7 6 12 14 12 25 0 8 -41 -17 -42 -7 -1 -11 -7 -9 -14 1 -7 -2 -10 -7 -7 -5
3 -14 -1 -21 -9 -13 -15 -8 -19 22 -16 9 1 19 -3 23 -9 5 -8 11 -8 21 1 11 9
12 15 2 28 -7 9 -8 13 -4 9 13 -11 35 34 24 49 -12 15 3 23 47 27 35 2 54 -7
37 -18 -5 -3 -8 -18 -7 -33 1 -15 -2 -33 -7 -40 -5 -7 -5 -14 2 -18 5 -3 10
-13 10 -21 0 -8 -4 -13 -9 -9 -5 3 -13 1 -16 -5 -5 -8 -11 -8 -19 -1 -7 6 -15
9 -18 6 -3 -3 -11 1 -18 10 -12 14 -15 14 -30 0 -15 -13 -20 -14 -31 -3 -18
17 -51 17 -72 -1 -10 -7 -17 -11 -17 -7 0 17 -3 23 -22 43 -11 12 -26 21 -32
20 -6 -1 -10 4 -8 11 1 8 -2 11 -7 8 -5 -4 -12 -2 -15 3 -5 7 -41 8 -41 1 0
-1 -8 -3 -17 -5 -20 -4 -44 20 -29 29 5 4 8 15 6 26 -2 11 1 22 6 25 5 4 7 10
5 14 -3 4 1 8 9 8 10 0 12 -4 5 -12 -5 -7 -6 -16 -2 -20 4 -5 2 -5 -5 -2 -10
6 -11 -11 -3 -33 1 -3 2 -9 1 -13 -1 -5 3 -6 9 -2 8 5 7 11 -1 21 -11 13 -5
19 15 15 5 -1 4 4 -3 13 -8 10 -9 16 -1 21 8 5 8 11 0 20 -10 12 -8 13 10 10
18 -3 20 -2 10 10 -10 12 -8 13 7 10 12 -2 20 2 20 10 0 8 -3 12 -7 10 -4 -2
-7 2 -7 10 0 8 4 12 9 9 4 -3 8 2 8 11 0 9 5 13 10 10 6 -4 8 -10 6 -14 -3 -4
1 -8 9 -8 8 0 13 3 10 5 -3 3 1 12 8 21 10 14 10 14 -4 4 -12 -10 -16 -10 -16
0 0 7 11 13 24 13 13 0 23 -6 23 -14 0 -7 4 -11 9 -8 11 7 19 -67 10 -91 -11
-30 2 -36 17 -8 7 14 14 52 16 85 3 55 4 58 20 43 10 -9 15 -20 12 -25z m173
-13 c0 -6 -6 -12 -12 -12 -6 0 -12 6 -12 12 0 6 6 12 12 12 6 0 12 -6 12 -12z
m-97 -11 c0 -8 -19 -13 -24 -6 -3 5 1 9 9 9 8 0 15 -2 15 -3z m137 -29 c0 -6
-6 -12 -12 -12 -6 0 -12 6 -12 12 0 6 6 12 12 12 6 0 12 -6 12 -12z m-911 -70
c-5 -11 -20 -22 -33 -23 -18 -1 -23 3 -23 23 0 17 7 28 22 34 30 11 47 -6 34
-34z m112 2 c6 -5 12 -6 12 -2 0 4 6 2 14 -4 9 -8 12 -22 9 -39 -3 -15 -6 -34
-8 -42 -1 -8 2 -20 6 -26 5 -6 7 -22 5 -35 -3 -13 -5 -26 -5 -28 -1 -2 -10 4
-21 14 -12 11 -37 20 -57 22 -20 1 -40 8 -44 14 -9 15 1 50 12 43 5 -3 9 -2 8
3 -1 4 0 11 1 16 1 4 4 15 5 25 9 59 25 69 63 39z m819 6 c0 -9 -4 -10 -14 -2
-7 6 -13 12 -13 14 0 1 6 2 13 2 8 0 14 -6 14 -14z m-41 -31 c-9 -9 -37 8 -31
18 5 8 11 7 21 -1 8 -6 12 -14 10 -17z m-866 -7 c-5 -7 -7 -15 -4 -18 4 -4 -5
-11 -20 -17 -17 -6 -24 -14 -20 -22 4 -7 3 -8 -4 -4 -17 11 -15 27 8 51 21 23
58 32 40 10z m195 -7 c11 2 39 -4 62 -12 23 -8 43 -13 45 -10 3 2 5 -2 5 -10
0 -17 -12 -15 -53 7 -30 15 -32 15 -49 -3 -10 -11 -21 -18 -24 -15 -4 2 -8 -7
-9 -21 -1 -13 3 -24 8 -24 6 0 10 -9 10 -21 0 -13 4 -18 13 -13 9 6 9 4 -1 -8
-21 -26 -47 -16 -47 20 0 17 -3 34 -7 38 -10 9 -10 68 -2 77 4 4 12 3 18 0 6
-4 20 -6 31 -5z m712 -34 c0 -7 -5 -12 -11 -11 -6 1 -10 -4 -8 -11 1 -8 -2
-11 -8 -7 -5 3 -10 -1 -10 -10 0 -9 -4 -14 -8 -11 -5 3 -7 18 -4 34 3 21 9 28
26 28 13 0 23 -6 23 -12z m-423 -35 c-20 -23 -41 -25 -41 -4 0 8 4 12 8 10 3
-3 12 2 19 10 7 8 17 12 22 9 5 -3 2 -14 -8 -25z m457 14 c13 -16 12 -17 -3
-4 -10 7 -18 15 -18 17 0 8 8 3 21 -13z m-686 -13 c4 -6 -5 -10 -20 -10 -15 0
-24 4 -20 10 3 6 12 10 20 10 8 0 17 -4 20 -10z m-283 -40 c3 -16 1 -30 -4
-30 -4 0 -8 8 -9 18 0 9 -2 25 -4 35 -2 9 0 15 5 12 4 -3 10 -18 12 -35z m398
9 c0 -26 -3 -29 -25 -26 -14 2 -26 7 -26 13 0 5 -5 14 -10 21 -7 8 -4 12 8 15
47 10 53 7 53 -23z m171 0 c11 -5 17 -14 14 -20 -4 -5 -10 -7 -15 -4 -8 5 -23
-11 -26 -27 -1 -5 -2 -11 -3 -15 0 -3 -10 2 -21 12 l-20 18 22 24 c25 27 23
26 49 12z m-111 -34 c-7 -19 -6 -27 8 -34 9 -6 13 -11 8 -11 -6 0 -20 10 -33
22 -21 20 -22 23 -7 39 22 24 36 15 24 -16z m-140 21 c0 -8 -51 -13 -56 -5 -3
5 9 9 25 9 17 0 31 -2 31 -4z m542 -31 c27 1 35 -2 28 -10 -5 -6 -26 -11 -46
-10 -27 0 -38 5 -40 18 -2 13 1 15 9 9 7 -5 29 -8 49 -7z m-802 -1 c0 -8 -19
-13 -24 -6 -3 5 1 9 9 9 8 0 15 -2 15 -3z m297 -50 c-9 -9 -28 6 -21 18 4 6
10 6 17 -1 6 -6 8 -13 4 -17z m-242 -4 c4 -6 1 -9 -7 -8 -7 2 -12 -2 -11 -8 1
-6 -5 -11 -13 -11 -11 0 -11 4 3 19 19 21 20 21 28 8z m542 -6 c-3 -3 -12 -4
-19 -1 -8 3 -5 6 6 6 11 1 17 -2 13 -5z m-187 -8 c0 -3 -4 -8 -10 -11 -5 -3
-10 -1 -10 4 0 6 5 11 10 11 6 0 10 -2 10 -4z m-293 -28 c-3 -8 -6 -5 -6 6 -1
11 2 17 5 13 3 -3 4 -12 1 -19z m643 12 c0 -5 -5 -10 -11 -10 -5 0 -7 5 -4 10
3 6 8 10 11 10 2 0 4 -4 4 -10z m-195 -180 c3 -5 -1 -10 -9 -10 -9 0 -16 5
-16 10 0 6 4 10 9 10 6 0 13 -4 16 -10z m-465 -46 c0 -8 -5 -12 -10 -9 -6 4
-8 11 -5 16 9 14 15 11 15 -7z m477 10 c-3 -3 -12 -4 -19 -1 -8 3 -5 6 6 6 11
1 17 -2 13 -5z m-277 -64 c0 -5 -4 -10 -9 -10 -6 0 -13 5 -16 10 -3 6 1 10 9
10 9 0 16 -4 16 -10z m5 -120 c3 -5 -3 -10 -15 -10 -12 0 -18 5 -15 10 3 6 10
10 15 10 5 0 12 -4 15 -10z m-5 -109 c0 -6 -4 -13 -10 -16 -5 -3 -10 1 -10 9
0 9 5 16 10 16 6 0 10 -4 10 -9z m14 -52 c-6 -11 -24 -2 -24 11 0 5 7 7 15 4
8 -4 12 -10 9 -15z m236 -19 c0 -5 -4 -10 -10 -10 -5 0 -10 5 -10 10 0 6 5 10
10 10 6 0 10 -4 10 -10z m-247 -89 c3 -14 0 -17 -14 -14 -20 5 -24 15 -12 26
11 12 21 8 26 -12z m117 -6 c0 -8 -4 -15 -10 -15 -5 0 -10 7 -10 15 0 8 5 15
10 15 6 0 10 -7 10 -15z m122 -27 c-9 -9 -15 -9 -24 0 -9 9 -9 12 1 12 8 0 11
6 7 18 -7 16 -6 16 11 0 13 -14 15 -20 5 -30z m-232 -89 c0 -6 -4 -7 -10 -4
-5 3 -10 11 -10 16 0 6 5 7 10 4 6 -3 10 -11 10 -16z m240 -19 c0 -5 -7 -10
-16 -10 -8 0 -12 5 -9 10 3 6 10 10 16 10 5 0 9 -4 9 -10z m-210 -69 c0 -12
-28 -22 -34 -12 -3 5 -3 11 1 15 9 9 33 7 33 -3z m17 -37 c-3 -3 -12 -4 -19
-1 -8 3 -5 6 6 6 11 1 17 -2 13 -5z m-837 -485 c0 -14 -29 -62 -48 -79 -19
-18 -20 -18 -25 0 -3 11 3 26 13 35 10 9 16 24 13 33 -3 13 2 17 21 17 15 0
26 -3 26 -6z m-193 -112 c-6 -13 -16 -24 -23 -24 -9 0 -7 8 4 23 22 30 33 30
19 1z m149 -74 c3 -14 -15 -30 -33 -29 -7 1 -12 6 -10 11 1 6 10 9 20 9 13 -1
15 2 8 9 -15 15 -41 17 -38 4 1 -7 -4 -11 -12 -9 -11 2 -12 0 -3 -11 7 -8 9
-17 6 -20 -4 -4 3 -5 14 -2 12 2 24 -1 28 -6 3 -5 0 -8 -8 -7 -8 2 -13 -6 -12
-20 1 -18 -1 -20 -12 -11 -7 6 -12 14 -11 17 1 4 -2 7 -8 7 -5 0 -9 -4 -7 -8
1 -5 -2 -6 -8 -2 -8 5 -7 11 1 21 11 13 5 19 -16 14 -5 -1 10 19 35 44 43 45
45 46 54 24 5 -13 10 -28 12 -35z m-841 -28 c17 -1 29 -6 28 -12 -2 -7 6 -10
17 -8 10 2 24 -3 30 -10 22 -26 6 -34 -33 -16 -20 9 -34 21 -30 27 5 5 -3 0
-16 -11 -15 -12 -21 -14 -16 -5 7 12 6 13 -6 4 -10 -8 -24 -7 -54 7 -22 10
-38 19 -35 19 3 1 16 4 29 6 14 2 27 6 29 9 3 2 10 1 16 -3 6 -4 25 -7 41 -7z
m-161 -46 c-8 -13 -24 -1 -24 18 0 13 3 13 15 3 8 -7 12 -16 9 -21z m75 -2 c8
-11 6 -13 -12 -13 -12 1 -22 -3 -22 -9 0 -15 -15 -35 -25 -35 -4 0 -11 7 -14
16 -3 8 -2 13 3 10 4 -3 19 6 31 19 28 29 25 28 39 12z m795 -8 c-3 -5 -10 -7
-15 -4 -15 10 -10 -2 8 -16 14 -12 16 -12 8 0 -5 10 -4 12 4 7 8 -6 9 -12 2
-20 -8 -10 -4 -13 17 -13 54 -1 61 -3 75 -32 13 -27 13 -30 -4 -34 -26 -7 -24
-30 6 -65 14 -17 25 -33 25 -36 0 -3 -11 -6 -25 -6 -16 0 -25 -6 -25 -16 0 -8
4 -13 8 -10 5 3 9 -1 9 -8 0 -7 -10 -13 -21 -12 -12 1 -20 -4 -19 -10 1 -6 -4
-11 -12 -11 -8 0 -11 5 -7 11 4 6 7 16 7 21 1 6 6 9 12 8 7 -1 9 11 7 33 -3
38 -21 67 -35 59 -12 -8 -2 -46 18 -62 10 -8 12 -11 4 -7 -8 4 -12 3 -8 -3 3
-5 0 -10 -8 -10 -8 0 -12 4 -9 9 3 4 -11 8 -32 8 -28 0 -34 3 -26 13 12 14 23
169 12 162 -9 -6 -7 36 3 53 5 7 13 10 18 6 5 -3 7 -10 3 -15z m-548 -1 c4 -7
4 -10 0 -6 -5 4 -20 2 -34 -3 -22 -8 -23 -8 -12 6 15 18 36 20 46 3z m623 -22
c23 -25 23 -25 2 -19 -12 3 -19 8 -16 11 2 3 0 11 -6 19 -19 23 -4 14 20 -11z
m-284 -14 c-3 -7 -5 -18 -5 -23 0 -16 -25 -10 -42 10 -18 21 -12 27 29 27 16
0 22 -4 18 -14z m-155 4 c0 -2 -7 -7 -16 -10 -8 -3 -12 -2 -9 4 6 10 25 14 25
6z m240 -6 c0 -5 -6 -10 -14 -10 -8 0 -18 5 -21 10 -3 6 3 10 14 10 12 0 21
-4 21 -10z m56 -86 c-2 -44 -14 -63 -50 -78 -7 -3 -6 -8 4 -15 13 -9 13 -11
-1 -11 -22 0 -31 36 -13 51 8 6 14 29 14 49 0 21 6 41 13 43 30 13 36 6 33
-39z m-731 16 c3 -5 1 -10 -4 -10 -6 0 -11 5 -11 10 0 6 2 10 4 10 3 0 8 -4
11 -10z m589 -39 c4 -28 12 -40 27 -44 35 -9 11 -27 -36 -27 l-43 0 9 43 c18
81 33 91 43 28z m419 -27 c-7 -18 -17 -18 -32 -1 -8 10 -7 17 1 25 15 15 39
-3 31 -24z m-917 -5 c6 -5 15 -5 20 -1 4 4 3 0 -4 -10 -13 -17 -47 -18 -47 -2
0 5 -4 15 -8 21 -6 9 -3 11 10 6 10 -3 23 -10 29 -14z m984 -19 c0 -5 -4 -10
-10 -10 -5 0 -10 5 -10 10 0 6 5 10 10 10 6 0 10 -4 10 -10z m66 -5 c14 -13
11 -15 -22 -15 -35 0 -37 1 -18 15 24 18 22 18 40 0z m-967 -19 c-9 -10 -59
-14 -54 -5 4 5 18 9 32 9 15 0 24 -2 22 -4z m1021 -12 c0 -8 4 -13 9 -10 9 6
37 -22 35 -33 -1 -3 1 -5 5 -4 4 1 8 -4 8 -11 0 -7 -6 -13 -13 -13 -7 0 -12 5
-11 11 1 6 -5 10 -13 8 -8 -2 -12 0 -7 4 4 4 -5 20 -20 36 -21 22 -23 28 -10
28 9 0 17 -7 17 -16z m-37 -44 c10 -20 11 -29 4 -27 -7 1 -11 -3 -10 -9 1 -6
-4 -11 -11 -11 -8 0 -12 13 -10 36 3 53 6 54 27 11z m-229 -52 c-3 -4 -11 -8
-19 -8 -8 0 -16 4 -19 8 -2 4 6 8 19 8 13 0 21 -4 19 -8z m-1008 -39 l19 -22
-30 7 c-16 4 -34 12 -40 18 -7 8 -6 9 2 4 6 -3 14 -2 18 4 8 13 9 13 31 -11z
m-71 -29 c3 -5 -1 -10 -10 -10 -9 0 -13 5 -10 10 3 6 8 10 10 10 2 0 7 -4 10
-10z m1503 -115 c3 -2 -1 -12 -9 -22 -12 -15 -12 -16 1 -8 8 4 5 -3 -8 -17
-13 -14 -31 -25 -40 -23 -9 1 -23 -2 -29 -8 -7 -5 -13 -8 -14 -6 -7 33 -6 38
4 32 7 -3 4 3 -6 14 -16 18 -16 22 -3 36 14 14 91 15 104 2z m-432 -40 c0 -43
-16 -60 -31 -35 -4 6 -11 7 -17 4 -6 -4 -8 -2 -4 4 3 6 2 13 -4 17 -6 4 -8 11
-4 16 3 5 9 7 13 4 5 -2 16 4 26 15 10 11 19 20 19 20 1 0 2 -20 2 -45z m-337
18 c-8 -9 -6 -11 11 -8 18 3 20 2 10 -10 -7 -8 -16 -12 -21 -9 -5 3 -9 -2 -9
-11 0 -9 -4 -13 -10 -10 -5 3 -10 -2 -10 -11 0 -10 -3 -14 -7 -11 -3 4 -14 0
-24 -9 -14 -12 -19 -13 -25 -2 -12 19 -14 39 -3 32 5 -3 9 2 9 11 0 23 37 51
66 51 17 0 21 -3 13 -13z m577 -20 c69 -41 68 -53 -3 -47 -79 8 -133 8 -165 1
-26 -5 -26 -4 -16 19 26 57 111 69 184 27z m-1033 -26 c4 3 7 1 7 -5 0 -7 -4
-12 -10 -12 -5 0 -9 -5 -7 -12 1 -7 -7 -12 -18 -13 -21 0 -27 22 -12 43 7 8
13 9 22 2 6 -5 15 -7 18 -3z m324 -53 c0 -6 -7 -11 -16 -9 -9 1 -24 -4 -33
-12 -13 -12 -16 -12 -14 -1 1 7 5 18 8 24 9 14 55 13 55 -2z m2003 11 c0 -2
-6 -8 -13 -14 -10 -8 -14 -7 -14 2 0 8 6 14 14 14 7 0 13 -1 13 -2z m-2207
-21 c4 -1 9 -3 12 -4 3 -1 10 -4 15 -5 6 -1 12 -3 15 -4 2 0 -3 -15 -13 -33
-13 -23 -26 -32 -45 -33 -30 -2 -55 19 -37 30 6 3 7 12 3 18 -11 17 -13 38 -3
32 5 -3 11 -1 15 5 4 6 12 7 18 3 7 -4 15 -8 20 -9z m1344 -16 c2 -12 8 -27
13 -33 7 -8 5 -12 -5 -12 -7 0 -13 5 -12 11 1 6 -4 10 -12 8 -12 -3 -12 0 -2
12 8 10 9 16 1 21 -6 3 -8 11 -4 16 8 14 17 4 21 -23z m-235 -10 c-3 -12 -1
-19 5 -15 5 3 10 0 10 -8 0 -8 -5 -13 -11 -12 -6 1 -10 -3 -9 -9 1 -6 -4 -11
-11 -11 -16 0 -14 40 3 61 18 21 20 20 13 -6z m198 6 c0 -8 -19 -13 -24 -6 -3
5 1 9 9 9 8 0 15 -2 15 -3z m-243 -49 c0 -6 -11 -11 -23 -11 -16 0 -20 3 -14
11 5 7 16 12 23 12 8 0 14 -5 14 -12z m251 -15 c7 -12 18 -18 25 -14 7 4 9 3
4 -1 -4 -5 1 -17 10 -28 10 -10 18 -22 18 -26 0 -3 3 -5 6 -4 3 1 6 -4 6 -11
0 -7 -6 -13 -13 -13 -7 0 -12 5 -11 11 1 6 -12 11 -29 10 -18 0 -31 5 -31 12
0 7 5 12 10 11 12 -3 18 31 6 39 -5 3 -9 -2 -9 -11 0 -9 -5 -13 -10 -10 -8 5
-8 11 -1 19 7 9 7 16 -1 24 -7 7 -8 12 -2 12 5 0 15 -9 22 -20z m-299 -43 c8
-10 7 -14 -2 -14 -8 0 -14 6 -14 14 0 7 1 13 2 13 2 0 8 -6 14 -13z m122 -55
c-7 -2 -18 1 -23 6 -8 8 -4 9 13 5 13 -4 18 -8 10 -11z m-795 -4 c-3 -22 -17
-39 -27 -32 -5 3 -8 0 -7 -6 3 -14 -29 -22 -37 -10 -7 11 35 51 46 44 4 -2 10
0 14 6 8 14 14 13 11 -2z m44 7 c0 -2 -6 -8 -13 -14 -10 -8 -14 -7 -14 2 0 8
6 14 14 14 7 0 13 -1 13 -2z m965 -24 c3 -5 2 -12 -3 -15 -5 -3 -9 1 -9 9 0
17 3 19 12 6z m-1556 -44 c8 -10 7 -14 -2 -14 -8 0 -14 6 -14 14 0 7 1 13 2
13 2 0 8 -6 14 -13z m568 -9 c-3 -8 -6 -5 -6 6 -1 11 2 17 5 13 3 -3 4 -12 1
-19z m63 -2 c0 -2 -8 -10 -17 -17 -16 -13 -17 -12 -4 4 13 16 21 21 21 13z
m558 -8 c-2 -7 2 -12 8 -11 5 1 10 -9 10 -21 0 -22 -3 -23 -35 -17 -2 1 2 8 9
16 12 14 7 20 -14 16 -5 -1 -4 5 4 13 15 19 21 20 18 4z m818 -24 c2 -14 0
-14 -17 1 -10 10 -16 22 -13 27 8 12 27 -6 30 -28z m-106 20 c0 -8 -19 -13
-24 -6 -3 5 1 9 9 9 8 0 15 -2 15 -3z m-1376 -35 c-3 -5 -10 -7 -15 -3 -5 3
-7 10 -3 15 3 5 10 7 15 3 5 -3 7 -10 3 -15z m66 7 c0 -2 -8 -10 -17 -17 -16
-13 -17 -12 -4 4 13 16 21 21 21 13z m1006 -9 c4 -4 0 -7 -9 -7 -9 0 -18 4
-21 9 -7 10 20 9 30 -2z m1268 -5 c3 -5 -1 -9 -9 -9 -8 0 -12 4 -9 9 3 4 7 8
9 8 2 0 6 -4 9 -8z m-1734 -18 c0 -8 -5 -12 -10 -9 -6 4 -8 11 -5 16 9 14 15
11 15 -7z m76 -140 c-1 -8 -5 -14 -9 -14 -4 0 -14 0 -24 0 -15 0 -15 1 0 18
10 10 14 23 10 27 -5 5 -1 4 9 -3 9 -7 15 -20 14 -28z m-576 -19 c0 -7 -8 -19
-17 -26 -10 -8 -14 -9 -10 -2 4 6 3 14 -3 18 -6 4 -8 10 -6 14 8 12 36 9 36
-4z m1509 -138 c8 -10 7 -14 -2 -14 -8 0 -14 6 -14 14 0 7 1 13 2 13 2 0 8 -6
14 -13z m297 -25 c-3 -3 0 -12 6 -21 10 -13 10 -14 -2 -4 -16 15 -23 46 -8 37
5 -3 7 -9 4 -12z m-1186 -7 c0 -2 -6 -8 -13 -14 -10 -8 -14 -7 -14 2 0 8 6 14
14 14 7 0 13 -1 13 -2z m968 -190 c8 -3 10 -10 5 -17 -9 -16 -12 -59 -4 -53 4
2 7 -24 7 -58 0 -38 4 -61 10 -60 6 1 11 -4 11 -12 0 -8 -5 -13 -11 -12 -6 1
-10 -4 -8 -11 1 -8 -2 -11 -8 -7 -6 3 -8 10 -6 14 3 4 -1 8 -8 8 -7 0 -13 -6
-13 -13 0 -7 4 -11 9 -8 4 3 8 -2 8 -11 0 -9 4 -14 8 -11 5 3 9 -1 9 -9 0 -8
-4 -12 -9 -9 -4 3 -8 -2 -8 -11 0 -9 4 -14 8 -11 5 3 9 -1 9 -8 0 -7 -6 -13
-13 -13 -7 0 -11 4 -8 8 2 4 0 10 -5 13 -11 7 -9 -13 3 -33 6 -10 5 -12 -2 -7
-7 4 -12 1 -12 -9 0 -10 5 -13 12 -9 6 4 8 3 5 -3 -8 -13 -94 -16 -102 -3 -3
6 -10 8 -14 6 -4 -3 -8 1 -8 8 0 7 6 13 14 13 7 0 13 -6 13 -12 0 -6 6 -12 13
-12 8 0 14 6 14 13 0 7 -3 12 -6 11 -3 -1 -6 2 -6 8 0 5 3 9 6 8 3 -1 6 4 6
12 0 8 -5 13 -11 12 -6 -1 -10 3 -9 9 1 6 -4 11 -11 11 -7 0 -13 -6 -13 -13 0
-7 3 -12 6 -11 3 1 6 -2 6 -8 0 -5 -5 -10 -10 -11 -7 -1 -11 20 -11 50 0 31
-4 50 -10 49 -6 -1 -11 4 -11 12 0 8 5 13 11 12 5 -1 10 12 10 28 0 17 -5 29
-10 28 -6 -1 -11 4 -11 12 0 8 4 13 8 12 4 -1 7 3 7 8 0 6 -3 9 -7 8 -4 -1 -8
4 -8 12 0 8 3 13 6 12 3 -1 7 3 8 8 0 6 -2 9 -6 8 -4 -1 -8 4 -8 12 0 8 5 13
11 12 6 -1 10 4 8 11 -1 8 2 11 7 8 5 -4 12 -2 16 4 4 6 10 8 15 5 5 -3 11 -1
14 4 6 9 53 6 84 -4z m49 -21 c0 -7 -5 -12 -11 -11 -6 1 -10 -3 -9 -9 1 -6 -4
-11 -11 -11 -7 0 -13 6 -13 13 0 7 5 12 11 11 6 -1 10 3 9 9 -1 6 4 11 11 11
7 0 13 -6 13 -13z m-1040 -39 c-1 -5 8 -9 20 -9 12 1 21 -4 20 -10 -1 -6 7
-11 19 -10 11 1 21 -5 21 -12 0 -7 -5 -12 -11 -11 -6 1 -10 -4 -8 -11 1 -6 -1
-11 -5 -10 -5 2 -8 -1 -8 -7 0 -5 3 -9 8 -7 4 1 6 -4 5 -10 -2 -7 2 -12 8 -11
6 1 11 -4 11 -12 0 -8 -3 -13 -6 -12 -3 1 -6 -2 -6 -8 0 -5 3 -9 6 -8 3 1 6
-4 6 -12 0 -8 -3 -13 -6 -12 -3 1 -6 -2 -6 -8 0 -5 3 -9 6 -8 3 1 6 -4 6 -12
0 -8 -3 -13 -6 -12 -3 1 -6 -3 -6 -8 0 -6 3 -9 6 -8 3 1 6 -4 6 -12 0 -8 -3
-13 -6 -12 -3 1 -6 -3 -6 -8 0 -6 3 -9 7 -8 3 1 5 -5 4 -15 -2 -14 -15 -17
-80 -17 -43 0 -80 3 -82 7 -3 5 -9 6 -13 4 -4 -3 -7 7 -5 22 1 15 3 27 4 27 1
0 3 12 4 26 2 15 -2 26 -10 26 -13 0 -13 -14 0 -35 5 -8 3 -12 -6 -10 -7 2
-12 -2 -11 -8 1 -6 -4 -11 -11 -11 -7 0 -13 6 -13 13 0 7 3 12 6 11 3 -1 6 2
6 8 0 5 -3 9 -6 8 -3 -1 -6 4 -6 12 0 8 3 13 6 12 3 -1 7 3 8 8 0 6 -2 9 -6 8
-4 -1 -8 4 -8 11 0 7 6 13 13 13 7 0 10 -5 7 -10 -4 -6 -1 -7 7 -2 8 5 11 4 7
-2 -3 -5 0 -10 7 -10 7 0 13 6 13 13 0 7 -5 12 -11 11 -5 -1 -10 12 -10 28 0
17 5 29 10 28 6 -1 11 4 11 12 0 8 -5 13 -11 12 -6 -1 -10 3 -9 9 1 6 -4 11
-11 11 -7 0 -13 -6 -13 -13 0 -7 4 -12 8 -11 4 1 6 -2 6 -8 -1 -5 -6 -9 -10
-7 -5 1 -5 -3 -1 -10 13 -20 13 -35 0 -35 -13 0 -16 113 -4 132 8 14 137 14
135 0z m-160 -120 c0 -6 -6 -12 -12 -12 -6 0 -12 6 -12 12 0 6 6 12 12 12 6 0
12 -6 12 -12z m280 -160 c0 -6 -6 -12 -12 -12 -6 0 -12 6 -12 12 0 6 6 12 12
12 6 0 12 -6 12 -12z m40 0 c0 -6 -6 -12 -12 -12 -6 0 -12 6 -12 12 0 6 6 12
12 12 6 0 12 -6 12 -12z"/>
<path d="M5306 6498 c3 -5 10 -6 15 -3 13 9 11 12 -6 12 -8 0 -12 -4 -9 -9z"/>
<path d="M4803 6435 c0 -6 6 -12 12 -12 6 0 12 6 12 12 0 6 -6 12 -12 12 -6 0
-12 -6 -12 -12z"/>
<path d="M4751 6417 c-8 -10 -7 -14 2 -14 8 0 14 6 14 14 0 7 -1 13 -2 13 -2
0 -8 -6 -14 -13z"/>
<path d="M4743 6376 c1 -6 -3 -10 -10 -9 -6 1 -10 -5 -9 -14 2 -9 10 -17 19
-19 20 -3 62 41 48 51 -7 3 -10 3 -9 -2 2 -4 -1 -9 -7 -9 -5 -1 -9 1 -8 5 1 4
-4 8 -12 8 -8 0 -13 -5 -12 -11z m15 -22 c-1 -5 -9 -9 -16 -10 -10 -2 -11 1
-1 12 12 14 24 13 17 -2z"/>
<path d="M4686 6358 c3 -5 10 -6 15 -3 13 9 11 12 -6 12 -8 0 -12 -4 -9 -9z"/>
<path d="M3371 5717 c-8 -10 -7 -14 2 -14 8 0 14 6 14 14 0 7 -1 13 -2 13 -2
0 -8 -6 -14 -13z"/>
<path d="M3323 5595 c0 -6 6 -12 12 -12 6 0 12 6 12 12 0 6 -6 12 -12 12 -6 0
-12 -6 -12 -12z"/>
<path d="M3243 5515 c0 -6 6 -12 12 -12 6 0 12 6 12 12 0 6 -6 12 -12 12 -6 0
-12 -6 -12 -12z"/>
<path d="M2969 5373 c-13 -16 -12 -17 4 -4 9 7 17 15 17 17 0 8 -8 3 -21 -13z"/>
<path d="M2883 5035 c0 -6 6 -12 12 -12 6 0 12 6 12 12 0 6 -6 12 -12 12 -6 0
-12 -6 -12 -12z"/>
<path d="M2870 4995 c-6 -8 -2 -11 14 -11 12 0 23 5 23 11 0 7 -6 12 -14 12
-7 0 -18 -5 -23 -12z"/>
<path d="M3026 4798 c3 -5 10 -6 15 -3 13 9 11 12 -6 12 -8 0 -12 -4 -9 -9z"/>
<path d="M3829 5813 c-13 -16 -12 -17 4 -4 9 7 17 15 17 17 0 8 -8 3 -21 -13z"/>
<path d="M3446 5758 c3 -5 10 -6 15 -3 13 9 11 12 -6 12 -8 0 -12 -4 -9 -9z"/>
<path d="M3803 5753 c0 -7 3 -11 5 -8 3 3 12 -1 21 -8 14 -10 14 -10 4 4 -7 9
-11 18 -8 21 3 2 -1 5 -8 5 -8 0 -14 -6 -14 -14z"/>
<path d="M3545 5741 c3 -3 17 -6 31 -7 13 0 22 2 19 5 -3 3 -17 6 -31 7 -13 0
-22 -2 -19 -5z"/>
<path d="M3624 5723 c16 -20 36 -23 36 -6 0 4 -3 3 -7 0 -3 -4 -16 1 -27 10
-21 18 -21 18 -2 -4z"/>
<path d="M4603 5715 c0 -6 6 -12 12 -12 6 0 12 6 12 12 0 6 -6 12 -12 12 -6 0
-12 -6 -12 -12z"/>
<path d="M4335 5661 c-3 -5 -2 -12 3 -15 5 -3 9 1 9 9 0 17 -3 19 -12 6z"/>
<path d="M4683 5635 c0 -6 6 -12 12 -12 6 0 12 6 12 12 0 6 -6 12 -12 12 -6 0
-12 -6 -12 -12z"/>
<path d="M4723 5593 c0 -7 3 -11 5 -8 3 3 11 0 17 -5 9 -7 16 -6 24 4 8 10 9
16 1 21 -5 3 -10 -1 -10 -10 0 -9 -5 -13 -10 -10 -6 4 -8 10 -6 14 3 4 -1 8
-8 8 -7 0 -13 -6 -13 -14z"/>
<path d="M4686 5558 c3 -5 10 -6 15 -3 13 9 11 12 -6 12 -8 0 -12 -4 -9 -9z"/>
<path d="M4680 5756 c0 -9 -4 -15 -8 -12 -5 3 -9 -1 -9 -9 0 -8 5 -13 11 -12
5 1 10 -4 11 -10 0 -15 20 -18 20 -3 0 6 5 9 10 8 6 -2 9 -6 8 -10 -1 -3 3
-11 11 -17 29 -24 11 20 -21 51 -26 25 -33 28 -33 14z m17 -21 c0 -8 -4 -12
-9 -9 -5 3 -6 10 -3 15 9 13 12 11 12 -6z"/>
<path d="M5246 5398 c3 -5 10 -6 15 -3 13 9 11 12 -6 12 -8 0 -12 -4 -9 -9z"/>
<path d="M5520 5286 c0 -2 8 -10 18 -17 15 -13 16 -12 3 4 -13 16 -21 21 -21
13z"/>
<path d="M5566 5238 c3 -5 10 -6 15 -3 13 9 11 12 -6 12 -8 0 -12 -4 -9 -9z"/>
<path d="M5604 5236 c1 -9 7 -21 13 -27 9 -9 11 -7 9 5 -1 9 -7 21 -13 27 -9
9 -11 7 -9 -5z"/>
<path d="M5736 5109 c9 -10 21 -16 25 -13 13 8 11 14 -3 12 -7 -2 -12 2 -11 8
1 6 -5 11 -13 11 -12 0 -11 -4 2 -18z"/>
<path d="M5985 4594 c1 -34 26 -71 48 -71 8 0 14 6 14 13 0 7 -5 12 -11 11 -6
-1 -11 12 -10 30 0 18 -4 31 -10 30 -6 -1 -10 3 -9 9 1 6 -4 11 -11 11 -7 0
-12 -13 -11 -33z m30 -22 c-1 -9 2 -24 8 -32 7 -9 3 -8 -8 2 -22 20 -31 75 -9
58 6 -6 11 -19 9 -28z"/>
<path d="M6024 4494 c5 -33 42 -51 63 -30 4 4 1 6 -7 4 -8 -1 -14 3 -12 10 1
6 -4 11 -10 10 -7 -2 -12 2 -11 8 1 6 -4 11 -11 11 -8 0 -13 -6 -12 -13z"/>
<path d="M6146 4458 c3 -5 10 -6 15 -3 13 9 11 12 -6 12 -8 0 -12 -4 -9 -9z"/>
<path d="M4241 5274 c0 -11 3 -14 6 -6 3 7 2 16 -1 19 -3 4 -6 -2 -5 -13z"/>
<path d="M3283 4638 c1 -7 -4 -12 -11 -10 -8 1 -11 -2 -7 -8 5 -8 11 -8 19 -1
7 6 17 7 22 3 4 -4 2 1 -5 11 -16 20 -22 22 -18 5z"/>
<path d="M3323 4595 c0 -19 43 -59 51 -47 3 5 -7 21 -23 36 -19 19 -28 22 -28
11z m32 -25 c10 -11 16 -20 13 -20 -3 0 -13 9 -23 20 -10 11 -16 20 -13 20 3
0 13 -9 23 -20z"/>
<path d="M4565 4710 c-8 -13 -11 -12 58 -14 42 -1 61 2 70 14 10 12 9 13 -3 4
-17 -12 -89 -13 -107 -1 -6 4 -14 3 -18 -3z"/>
<path d="M5719 4404 c-7 -9 -6 -12 6 -10 22 3 40 23 20 23 -8 0 -20 -6 -26
-13z"/>
<path d="M4683 4155 c0 -6 6 -12 12 -12 6 0 12 6 12 12 0 6 -6 12 -12 12 -6 0
-12 -6 -12 -12z"/>
<path d="M4683 4115 c0 -6 6 -12 12 -12 6 0 12 6 12 12 0 6 -6 12 -12 12 -6 0
-12 -6 -12 -12z"/>
<path d="M4283 3995 c0 -6 6 -12 12 -12 6 0 12 6 12 12 0 6 -6 12 -12 12 -6 0
-12 -6 -12 -12z"/>
<path d="M4323 3997 c0 -8 6 -14 14 -14 9 0 10 4 2 14 -6 7 -12 13 -14 13 -1
0 -2 -6 -2 -13z"/>
<path d="M4219 3984 c-8 -10 -15 -11 -24 -4 -9 8 -15 8 -20 0 -5 -8 -11 -8
-19 -1 -7 6 -16 7 -20 3 -4 -4 -17 -7 -28 -7 -12 0 -22 -7 -23 -16 -2 -9 3
-16 11 -16 7 0 13 3 12 6 -2 20 5 22 23 5 11 -10 19 -14 17 -9 -2 6 2 10 7 10
6 0 9 -3 8 -6 -1 -3 4 -6 12 -6 8 0 13 4 12 8 -1 4 3 6 8 6 6 -1 9 -5 8 -8 -1
-3 4 -6 12 -6 8 0 14 3 13 6 -2 18 4 22 16 12 10 -8 16 -9 21 -1 4 6 3 9 -2 8
-4 -2 -9 2 -9 7 -1 6 3 9 10 7 6 -2 7 0 3 4 -13 14 -36 13 -48 -2z m21 2 c0
-2 -8 -10 -17 -17 -16 -13 -17 -12 -4 4 13 16 21 21 21 13z"/>
<path d="M4484 3947 c0 -18 5 -24 21 -23 11 1 19 -5 18 -11 -2 -7 3 -12 10
-10 6 1 11 -4 10 -10 -2 -7 3 -12 10 -10 6 1 11 -5 9 -13 -2 -8 0 -12 4 -7 4
4 17 -1 28 -10 21 -18 21 -18 3 3 -9 11 -14 24 -10 28 5 4 1 6 -7 4 -9 -2 -14
3 -12 12 2 8 0 12 -4 7 -4 -4 -24 8 -44 28 -35 34 -36 34 -36 12z"/>
<path d="M5269 4019 c-5 -18 -5 -58 0 -57 18 2 22 -4 12 -16 -8 -10 -8 -16 3
-25 10 -8 16 -9 21 -1 4 6 3 10 -2 9 -22 -4 -25 3 -9 20 12 13 14 21 6 26 -5
3 -8 10 -5 15 3 4 -2 13 -10 20 -8 7 -15 11 -16 9z m17 -27 c-3 -3 0 -12 6
-21 10 -13 10 -14 -2 -4 -16 15 -23 46 -8 37 5 -3 7 -9 4 -12z"/>
<path d="M3774 1978 c-4 -7 -4 -10 1 -6 4 4 15 2 24 -5 14 -11 14 -10 2 6 -16
20 -18 21 -27 5z"/>
<path d="M3704 1768 c3 -18 5 -35 5 -37 2 -10 41 33 41 44 0 12 -21 25 -41 25
-5 0 -7 -15 -5 -32z"/>
<path d="M4023 1575 c0 -8 4 -12 9 -9 5 3 6 10 3 15 -9 13 -12 11 -12 -6z"/>
<path d="M3776 1321 c-14 -16 -15 -20 -2 -30 9 -8 16 -8 20 -2 4 5 2 13 -4 16
-8 5 -7 11 1 21 17 21 5 17 -15 -5z"/>
<path d="M3403 1276 c1 -6 -4 -10 -11 -8 -8 1 -11 -2 -7 -8 5 -8 13 -6 26 6
23 21 23 21 5 21 -8 0 -14 -5 -13 -11z"/>
<path d="M4462 1106 c4 -5 3 -15 -3 -22 -7 -9 -6 -12 5 -10 25 3 28 12 9 27
-10 7 -15 9 -11 5z"/>
<path d="M5043 358 c1 -7 -4 -13 -10 -14 -7 -1 -16 -2 -20 -3 -4 0 -2 -6 5
-13 8 -8 9 -15 1 -25 -7 -7 -10 -13 -8 -14 34 -7 35 -6 35 25 -1 22 3 30 13
28 12 -3 12 0 1 12 -15 19 -21 20 -17 4z"/>
<path d="M5123 275 c0 -6 6 -12 12 -12 6 0 12 6 12 12 0 6 -6 12 -12 12 -6 0
-12 -6 -12 -12z"/>
<path d="M5014 258 c-3 -4 -4 -8 -2 -9 25 -6 35 -5 35 5 0 14 -25 17 -33 4z"/>
<path d="M5123 235 c0 -6 6 -12 12 -12 6 0 12 6 12 12 0 6 -6 12 -12 12 -6 0
-12 -6 -12 -12z"/>
<path d="M5023 215 c0 -6 6 -12 12 -12 6 0 12 6 12 12 0 6 -6 12 -12 12 -6 0
-12 -6 -12 -12z"/>
<path d="M5123 193 c0 -7 3 -11 5 -8 3 3 12 -1 21 -8 14 -10 14 -10 4 4 -7 9
-11 18 -8 21 3 2 -1 5 -8 5 -8 0 -14 -6 -14 -14z"/>
<path d="M5014 178 c-3 -4 -4 -8 -2 -9 25 -6 35 -5 35 5 0 14 -25 17 -33 4z"/>
<path d="M5023 135 c0 -6 6 -12 12 -12 6 0 12 6 12 12 0 6 -6 12 -12 12 -6 0
-12 -6 -12 -12z"/>
<path d="M5123 115 c0 -8 4 -12 9 -9 5 3 6 10 3 15 -9 13 -12 11 -12 -6z"/>
<path d="M4029 317 c-7 -16 -4 -34 7 -34 7 0 12 5 11 11 -1 6 5 10 13 8 8 -2
11 0 7 4 -7 7 -36 15 -38 11z"/>
<path d="M4086 312 c-3 -5 1 -9 9 -9 8 0 12 4 9 9 -3 4 -7 8 -9 8 -2 0 -6 -4
-9 -8z"/>
<path d="M4125 310 c-4 -6 -1 -9 7 -8 7 2 12 -3 11 -9 -2 -7 1 -12 6 -10 5 1
8 -2 8 -8 -1 -5 -5 -9 -9 -7 -5 1 -7 -4 -5 -10 1 -7 -3 -12 -9 -11 -6 1 -11
-4 -11 -12 0 -8 4 -13 8 -12 4 1 6 -2 6 -8 -1 -5 -5 -9 -8 -8 -3 1 -6 -4 -6
-12 0 -8 3 -13 6 -12 3 1 6 -2 6 -8 0 -5 -3 -9 -6 -8 -3 1 -6 -4 -6 -12 0 -8
4 -13 8 -12 4 1 7 -2 7 -8 0 -5 -3 -9 -7 -8 -4 1 -8 -4 -8 -11 0 -7 6 -13 13
-13 7 0 12 4 11 8 -1 4 3 6 8 6 6 -1 10 -23 10 -48 -1 -30 3 -46 11 -46 7 0
12 3 11 6 -1 3 3 6 8 6 6 0 9 -3 8 -6 -1 -3 5 -6 13 -6 12 0 12 3 -2 18 -11
12 -12 19 -4 24 8 5 8 10 0 20 -8 10 -8 15 0 20 8 5 8 10 0 20 -8 10 -8 15 0
20 8 5 8 11 1 19 -7 8 -7 16 -1 22 7 7 4 17 -10 29 l-20 18 22 26 c13 14 19
23 14 18 -5 -4 -18 0 -28 10 -10 9 -18 12 -18 8 0 -4 -9 0 -19 9 -13 12 -21
14 -26 6z m60 -60 c-12 -13 -12 -19 -3 -28 16 -16 18 -160 3 -172 -8 -7 -11 2
-10 28 1 24 -5 44 -17 58 -13 15 -16 24 -8 29 8 5 8 10 0 20 -8 10 -8 15 0 20
8 5 8 11 1 19 -8 9 -5 18 9 31 11 10 17 23 13 29 -4 6 1 5 10 -3 16 -12 16
-16 2 -31z"/>
<path d="M4169 253 c-13 -16 -12 -17 4 -4 16 13 21 21 13 21 -2 0 -10 -8 -17
-17z"/>
<path d="M4164 186 c0 -24 5 -43 11 -43 14 0 13 63 -1 77 -6 6 -10 -5 -10 -34z"/>
<path d="M4064 54 c4 -27 43 -43 43 -18 0 7 -5 12 -11 11 -6 -1 -10 3 -9 9 1
6 -4 11 -11 11 -8 0 -13 -6 -12 -13z"/>
</g>
</svg>
